<svg width="122" height="24" viewBox="0 0 122 24" fill="none" xmlns="http://www.w3.org/2000/svg">
<path d="M0 0.181204H5.02199L9.30786 11.1576L13.6101 0.181204L17.896 11.1576L22.1655 0.181204H27.1874L17.896 23.8843L13.5447 12.3518L9.30786 23.8843L0 0.181204ZM29.1995 0.132128H43.1858V4.77788H33.8616V9.43999H40.8466V14.0857H33.8616V18.7642H43.1858V23.3936H29.1995V0.132128ZM56.0762 0.00126341L56.0925 0.0339793C59.2103 0.0465684 62.1992 1.2797 64.4189 3.46922L61.0981 6.78995C59.675 5.41585 58.0228 4.71245 56.1252 4.71245C54.247 4.68849 52.4421 5.44006 51.136 6.78995C49.7619 8.1804 49.0748 9.84894 49.0748 11.7792C49.0446 13.6554 49.7904 15.4607 51.136 16.7685C52.749 18.4022 55.0606 19.1412 57.3222 18.7463C59.5839 18.3515 61.5082 16.8728 62.4722 14.7891H55.8635V10.356H67.756C68.1961 13.9467 66.9523 17.5393 64.3862 20.0892C62.0796 22.3794 59.2987 23.5408 56.0762 23.5408C52.9527 23.5893 49.9493 22.3394 47.7825 20.0892C45.476 17.8154 44.3309 15.0509 44.3309 11.7792C44.2857 8.65166 45.5348 5.64442 47.7825 3.46922C50.0563 1.14634 52.8209 0.00126341 56.0762 0.00126341ZM69.8171 0.181204H74.4792V18.7315H83.7871V23.3609H69.8171V0.181204ZM95.2706 0.00126341C98.4017 -0.0455529 101.412 1.21053 103.581 3.46922C105.887 5.77573 107.049 8.54028 107.049 11.7792C107.095 14.9104 105.839 17.9202 103.581 20.0892C101.274 22.3794 98.5095 23.5245 95.2706 23.5245C92.148 23.5604 89.1463 22.3195 86.9606 20.0892C84.6541 17.7991 83.509 15.0182 83.509 11.7792C83.4638 8.65166 84.7129 5.64442 86.9606 3.46922C89.2671 1.14634 92.0316 0.00126341 95.2706 0.00126341ZM95.2706 4.69609C93.3897 4.65821 91.5794 5.41201 90.2813 6.77359C88.8909 8.16404 88.2038 9.83258 88.2038 11.7629C88.1759 13.6418 88.9281 15.4483 90.2813 16.7521C91.6554 18.1099 93.3076 18.7969 95.2706 18.7969C97.1372 18.8192 98.9325 18.081 100.243 16.7521C101.634 15.378 102.321 13.7095 102.321 11.7629C102.349 9.88391 101.597 8.07747 100.243 6.77359C98.8694 5.38313 97.2009 4.69609 95.2706 4.69609ZM105.92 0.181204H122V4.79424H116.307V23.3609H111.629V4.79424H105.92V0.181204Z" fill="#18164C"/>
</svg>
